<?xml version="1.0" encoding="UTF-8"?>
<!DOCTYPE svg PUBLIC "-//W3C//DTD SVG 1.1//EN" "http://www.w3.org/Graphics/SVG/1.1/DTD/svg11.dtd">
<!-- Creator: CorelDRAW X6 -->
<svg xmlns="http://www.w3.org/2000/svg" xml:space="preserve" width="29.4722in" height="29.4722in" version="1.1" style="shape-rendering:geometricPrecision; text-rendering:geometricPrecision; image-rendering:optimizeQuality; fill-rule:evenodd; clip-rule:evenodd"
viewBox="0 0 29472 29472"
 xmlns:xlink="http://www.w3.org/1999/xlink">
 <defs>
  <style type="text/css">
   <![CDATA[
    .fil18 {fill:#23B6EA;fill-rule:nonzero}
    .fil9 {fill:#24ABAD;fill-rule:nonzero}
    .fil7 {fill:#3DC1D0;fill-rule:nonzero}
    .fil5 {fill:#40396A;fill-rule:nonzero}
    .fil13 {fill:#4A4283;fill-rule:nonzero}
    .fil14 {fill:#4C478F;fill-rule:nonzero}
    .fil2 {fill:#569F5F;fill-rule:nonzero}
    .fil3 {fill:#5C56A2;fill-rule:nonzero}
    .fil1 {fill:#76B578;fill-rule:nonzero}
    .fil19 {fill:#84CCF1;fill-rule:nonzero}
    .fil11 {fill:#909E75;fill-rule:nonzero}
    .fil0 {fill:#95CD89;fill-rule:nonzero}
    .fil15 {fill:#A49FC1;fill-rule:nonzero}
    .fil12 {fill:#DE5C98;fill-rule:nonzero}
    .fil20 {fill:#E98EB6;fill-rule:nonzero}
    .fil8 {fill:#EF64A4;fill-rule:nonzero}
    .fil6 {fill:#F071AB;fill-rule:nonzero}
    .fil10 {fill:#F28AB8;fill-rule:nonzero}
    .fil17 {fill:#FCDA66;fill-rule:nonzero}
    .fil16 {fill:#FEC23A;fill-rule:nonzero}
    .fil4 {fill:#FEFEFE;fill-rule:nonzero}
   ]]>
  </style>
 </defs>
 <g id="Layer_x0020_1">
  <metadata id="CorelCorpID_0Corel-Layer"/>
  <polygon class="fil0" points="0,29463 29463,29463 29463,0 0,0 "/>
  <polygon class="fil1" points="0,29463 29463,29463 29463,22595 0,22595 "/>
  <path class="fil2" d="M15009 26978c-5908,0 -10698,-652 -10698,-1455 0,-449 1498,-851 3852,-1118l0 528 223 0c0,1 0,2 0,3l370 0c0,14 -1,28 -1,42 0,786 637,1424 1424,1424 786,0 1424,-637 1424,-1424 0,-14 0,-28 -1,-42l370 0c0,-1 0,-2 0,-3l6074 0 0 -1 559 0c0,13 -1,26 -1,39 0,786 638,1424 1424,1424 786,0 1424,-638 1424,-1424 0,-13 0,-26 -1,-39l498 0c96,0 139,-36 139,-102l0 -398c2220,267 3619,657 3619,1091 0,804 -4789,1455 -10698,1455zm3036 -2603l-846 0 0 -18 846 0 0 18zm-9556 0l-58 0c20,-2 40,-4 60,-6 -1,2 -2,4 -2,6z"/>
  <path class="fil3" d="M23162 22651c0,163 -129,295 -288,295l-16319 0c-159,0 -288,-132 -288,-295l0 -11556c0,-163 129,-295 288,-295l16319 0c159,0 288,132 288,295l0 11556z"/>
  <polygon class="fil4" points="6970,22049 22461,22049 22461,11759 6970,11759 "/>
  <path class="fil5" d="M24465 23884c0,261 -203,473 -453,473l-18578 0c-250,0 -453,-212 -453,-473l0 -812c0,-261 203,-473 453,-473l18578 0c250,0 453,212 453,473l0 812z"/>
  <polygon class="fil0" points="6970,14682 10455,14682 10075,13336 6970,13336 "/>
  <polygon class="fil0" points="11606,18759 7794,22054 12536,22054 "/>
  <polygon class="fil0" points="19979,20817 17838,18544 12058,18544 13049,22054 19979,22054 "/>
  <polygon class="fil0" points="10587,13336 10967,14682 14199,14682 12931,13336 "/>
  <polygon class="fil0" points="10594,15175 6970,15175 6970,22054 7040,22054 11458,18235 "/>
  <polygon class="fil0" points="17373,18051 14664,15175 11107,15175 11918,18051 "/>
  <polygon class="fil0" points="16162,11764 10144,11764 10448,12842 13144,12842 14877,14682 16162,14682 "/>
  <polygon class="fil0" points="22461,12277 20472,14265 20472,18051 22461,18051 "/>
  <polygon class="fil0" points="9936,12842 9631,11764 6970,11764 6970,12842 "/>
  <polygon class="fil0" points="20472,18544 20472,20621 21822,22054 22461,22054 22461,18544 "/>
  <polygon class="fil0" points="19979,18544 18515,18544 19979,20098 "/>
  <polygon class="fil0" points="20472,21341 20472,22054 21144,22054 "/>
  <polygon class="fil0" points="16655,11764 16655,15175 15342,15175 18050,18051 19979,18051 19979,14061 22275,11764 "/>
  <path class="fil6" d="M22484 11769l-15534 0c-642,630 -1310,1255 -2001,1861l19603 0c-725,-603 -1414,-1228 -2067,-1861z"/>
  <path class="fil7" d="M8643 11769c-504,630 -1028,1255 -1570,1861l15372 0c-568,-603 -1108,-1228 -1619,-1861l-12183 0z"/>
  <path class="fil6" d="M10565 11769c-348,630 -709,1255 -1082,1861l10571 0c-390,-603 -760,-1228 -1110,-1861l-8380 0z"/>
  <path class="fil7" d="M12357 11769c-202,630 -411,1255 -626,1861l6090 0c-225,-603 -436,-1228 -636,-1861l-4828 0z"/>
  <path class="fil6" d="M14033 11769c-66,630 -133,1255 -200,1861l1905 0c-70,-603 -134,-1229 -194,-1861l-1510 0z"/>
  <path class="fil8" d="M4959 13618c18,587 482,1057 1054,1057 572,0 1036,-470 1054,-1057l-2109 0z"/>
  <path class="fil9" d="M7054 13627c21,678 558,1222 1219,1222 661,0 1198,-544 1219,-1222l-2439 0z"/>
  <path class="fil8" d="M9479 13625c19,626 515,1127 1125,1127 610,0 1105,-502 1125,-1127l-2249 0z"/>
  <path class="fil9" d="M11713 13634c18,588 484,1060 1057,1060 574,0 1039,-471 1057,-1060l-2114 0z"/>
  <path class="fil9" d="M22481 13610c-21,678 -558,1222 -1220,1222 -661,0 -1198,-544 -1219,-1222l2439 0z"/>
  <path class="fil8" d="M20056 13609c-19,626 -515,1127 -1125,1127 -610,0 -1106,-502 -1125,-1127l2250 0z"/>
  <path class="fil9" d="M17822 13617c-18,588 -484,1059 -1057,1059 -574,0 -1039,-471 -1057,-1059l2114 0z"/>
  <path class="fil8" d="M13827 13617c16,533 439,960 958,960 519,0 941,-427 958,-960l-1916 0z"/>
  <path class="fil8" d="M24539 13617c-18,582 -479,1049 -1047,1049 -568,0 -1028,-466 -1046,-1049l2093 0z"/>
  <path class="fil6" d="M16795 6218c0,-1216 -986,-2201 -2201,-2201 -1216,0 -2201,986 -2201,2201 0,1757 2180,3543 2180,3543 0,0 2223,-1759 2223,-3543z"/>
  <path class="fil10" d="M13175 6716c-95,0 -298,-454 -298,-796 0,-865 703,-1527 1567,-1567 23,-1 46,-2 70,-2 470,0 933,213 698,278 -1223,342 -1907,909 -1992,1992 -5,66 -22,94 -46,94z"/>
  <path class="fil11" d="M14572 9761l0 0 0 0zm2223 -3547c0,0 0,-1 0,-1 0,0 0,1 0,1zm0 -4c0,0 0,-1 0,-1 0,0 0,1 0,1zm0 -4c0,-1 0,-1 0,-2 0,1 0,1 0,2zm0 -4c0,0 0,-1 0,-1 0,0 0,1 0,1zm0 -4c0,-1 0,-1 0,-2 0,1 0,1 0,2zm0 -4c0,-1 0,-1 0,-1 0,0 0,1 0,1zm0 -4c0,0 0,-1 0,-1 0,0 0,1 0,1zm0 -4c0,0 0,-1 0,-1 0,0 0,1 0,1zm0 -4c0,0 0,-1 0,-1 0,0 0,1 0,1zm0 -4c0,0 0,-1 0,-1 0,0 0,1 0,1zm0 -4c0,0 0,0 0,-1 0,0 0,0 0,1z"/>
  <path class="fil12" d="M14572 9761l0 0 0 0 0 0c-3,-2 -317,-260 -706,-676 592,-116 1093,-559 1479,-1007 243,-282 469,-585 615,-930 139,-328 199,-668 228,-1022 42,-500 3,-1039 -129,-1552 442,395 724,964 736,1600 0,0 0,0 0,1 0,1 0,2 0,3 0,0 0,1 0,1 0,1 0,2 0,3 0,0 0,1 0,1 0,1 0,2 0,2 0,0 0,1 0,1 0,1 0,2 0,2 0,0 0,1 0,1 0,1 0,2 0,2 0,0 0,1 0,1 0,1 0,1 0,2 0,1 0,1 0,2 0,1 0,1 0,2 0,0 0,1 0,1 0,1 0,1 0,2 0,1 0,1 0,2 0,1 0,1 0,2 0,1 0,1 0,1 0,1 0,2 0,3 0,0 0,1 0,1 0,1 0,2 0,4 0,1784 -2223,3543 -2223,3543z"/>
  <path class="fil4" d="M15944 5986c0,725 -588,1313 -1313,1313 -725,0 -1313,-588 -1313,-1313 0,-725 588,-1313 1313,-1313 725,0 1313,588 1313,1313z"/>
  <path class="fil6" d="M8273 24740c0,16 -13,29 -29,29l-222 0c-16,0 -29,-13 -29,-29l0 -272c0,-16 13,-29 29,-29l222 0c16,0 29,13 29,29l0 272z"/>
  <path class="fil6" d="M21182 19417c-33,-63 -58,-70 -158,-70l-2979 0 0 5584 3904 0c96,0 139,-36 139,-102l0 -2750 -906 -2663z"/>
  <path class="fil13" d="M21820 24929c-22,-971 -816,-1752 -1793,-1752 -976,0 -1770,780 -1793,1752l3585 0z"/>
  <path class="fil3" d="M21451 24970c0,786 -637,1424 -1424,1424 -786,0 -1424,-638 -1424,-1424 0,-786 638,-1423 1424,-1423 786,0 1424,637 1424,1423z"/>
  <path class="fil4" d="M20804 24970c0,429 -348,777 -776,777 -429,0 -777,-348 -777,-777 0,-429 348,-777 777,-777 429,0 776,348 776,777z"/>
  <path class="fil14" d="M20027 26003c-570,0 -1033,-463 -1033,-1033 0,-571 463,-1033 1033,-1033 571,0 1033,462 1033,1033 0,570 -462,1033 -1033,1033zm0 -1809c-429,0 -777,348 -777,777 0,429 348,777 777,777 429,0 776,-348 776,-777 0,-429 -348,-777 -776,-777z"/>
  <path class="fil15" d="M20027 25747c-429,0 -777,-348 -777,-777 0,-429 348,-777 777,-777 429,0 776,348 776,777 0,429 -348,777 -776,777zm0 -1412c-351,0 -635,284 -635,635 0,351 284,635 635,635 351,0 636,-284 636,-635 0,-351 -284,-635 -636,-635z"/>
  <polygon class="fil13" points="8700,24407 17199,24407 17199,23956 8700,23956 "/>
  <polygon class="fil3" points="17567,24931 18045,24931 18045,19083 17567,19083 "/>
  <polygon class="fil3" points="8163,24932 18045,24932 18045,24375 8163,24375 "/>
  <polygon class="fil13" points="8163,24932 18045,24932 18045,24652 8163,24652 "/>
  <path class="fil16" d="M17563 23942c0,21 -18,38 -40,38l-9148 0c-22,0 -40,-17 -40,-38l0 -6043c0,-21 18,-38 40,-38l9148 0c22,0 40,17 40,38l0 6043z"/>
  <path class="fil17" d="M16794 23538c0,72 -58,130 -130,130l-1603 0c-72,0 -130,-58 -130,-130l0 -1430c0,-72 58,-130 130,-130l1603 0c72,0 130,58 130,130l0 1430z"/>
  <path class="fil17" d="M10852 22400c0,61 -49,110 -110,110l-1651 0c-61,0 -110,-49 -110,-110 0,-61 49,-110 110,-110l1651 0c61,0 110,49 110,110z"/>
  <path class="fil17" d="M10852 22823c0,61 -49,110 -110,110l-1651 0c-61,0 -110,-49 -110,-110 0,-61 49,-110 110,-110l1651 0c61,0 110,49 110,110z"/>
  <path class="fil17" d="M10852 23245c0,61 -49,110 -110,110l-1651 0c-61,0 -110,-49 -110,-110 0,-61 49,-110 110,-110l1651 0c61,0 110,49 110,110z"/>
  <polygon class="fil6" points="12135,19690 13681,19690 13681,17865 12135,17865 "/>
  <path class="fil13" d="M11971 24935c-22,-971 -816,-1752 -1793,-1752 -976,0 -1771,780 -1793,1752l3585 0z"/>
  <path class="fil3" d="M11602 24977c0,786 -637,1424 -1424,1424 -786,0 -1424,-637 -1424,-1424 0,-786 637,-1423 1424,-1423 786,0 1424,637 1424,1423z"/>
  <path class="fil4" d="M10955 24977c0,429 -348,777 -777,777 -429,0 -776,-348 -776,-777 0,-429 348,-776 776,-776 429,0 777,348 777,776z"/>
  <path class="fil14" d="M10179 26010c-570,0 -1033,-462 -1033,-1033 0,-571 463,-1033 1033,-1033 570,0 1033,462 1033,1033 0,571 -462,1033 -1033,1033zm0 -1809c-429,0 -776,348 -776,776 0,429 348,777 776,777 429,0 777,-348 777,-777 0,-429 -348,-776 -777,-776z"/>
  <path class="fil15" d="M10179 25753c-429,0 -776,-348 -776,-777 0,-429 348,-776 776,-776 429,0 777,348 777,776 0,429 -348,777 -777,777zm0 -1412c-351,0 -635,284 -635,635 0,351 285,636 635,636 351,0 635,-284 635,-636 0,-351 -285,-635 -635,-635z"/>
  <path class="fil12" d="M21464 22398l-3182 0 0 -2719 2536 0 646 2037 0 682zm-2500 -202l0 0 193 0 0 0 2070 0 0 -581 -550 -1734 -939 0 -169 -1 0 1 -1050 0 0 2315 446 0z"/>
  <polygon class="fil18" points="21227,22196 18519,22196 18519,19881 20677,19881 21227,21615 "/>
  <polygon class="fil19" points="19558,22196 19268,22196 19873,19883 20164,19883 "/>
  <path class="fil20" d="M19158 22196l-193 0 193 0 0 0zm581 -2315l-169 0 0 -1 169 1z"/>
  <polygon class="fil19" points="19158,22196 18964,22196 19569,19881 19738,19881 19759,19881 "/>
  <path class="fil16" d="M22089 22699l-400 0c-33,0 -60,27 -60,59l0 563c0,33 27,59 60,59l400 0 0 -682z"/>
  <path class="fil6" d="M22018 22877c0,8 -6,14 -14,14l-251 0c-8,0 -14,-6 -14,-14l0 -66c0,-8 6,-14 14,-14l251 0c8,0 14,6 14,14l0 66z"/>
  <polygon class="fil4" points="6085,21970 8248,21836 8248,22127 "/>
  <polygon class="fil4" points="6085,22393 7553,22275 7553,22533 "/>
  <polygon class="fil4" points="6085,23238 8094,23120 8094,23378 "/>
  <polygon class="fil4" points="6085,22816 9014,22697 9014,22956 "/>
  <path class="fil4" d="M10237 7260c-21,-373 -304,-669 -652,-669 -68,0 -133,11 -194,32 -137,-277 -406,-465 -716,-465 -115,0 -224,26 -323,73 -172,-247 -445,-407 -752,-407 -425,0 -785,306 -903,727 -65,-22 -134,-34 -206,-34 -379,0 -687,332 -693,743l4438 0z"/>
  <path class="fil4" d="M23080 7031c-20,-373 -304,-669 -652,-669 -68,0 -133,11 -194,32 -137,-277 -406,-465 -716,-465 -115,0 -224,26 -323,73 -172,-247 -445,-407 -752,-407 -425,0 -785,306 -903,728 -65,-22 -134,-34 -206,-34 -379,0 -687,332 -693,743l4438 0z"/>
  <path class="fil7" d="M24638 8943l-385 0c-30,-64 -81,-210 -7,-351l238 0c137,0 248,-111 248,-248 0,-137 -111,-248 -248,-248l-2892 0c-137,0 -248,111 -248,248 0,137 111,248 248,248l882 0c40,65 96,204 -20,351l-197 0c-113,0 -205,92 -205,205 0,113 92,205 205,205l2382 0c113,0 204,-92 204,-205 0,-113 -91,-205 -204,-205z"/>
  <path class="fil6" d="M6442 18957l-698 0c-29,-47 -94,-178 -3,-300l257 0c114,0 207,-110 207,-245 0,-135 -92,-245 -207,-245l-2405 0c-114,0 -206,110 -206,245 0,135 92,245 206,245l383 0c38,45 120,169 -18,300l-227 0c-129,0 -233,108 -233,242 0,133 104,242 233,242l2710 0c128,0 233,-108 233,-242 0,-133 -104,-242 -233,-242z"/>
  <path class="fil17" d="M6889 9027l-198 0c-30,-90 -48,-224 39,-349l146 0c142,0 257,-115 257,-257 0,-142 -115,-257 -257,-257l-2402 0c-142,0 -257,115 -257,257 0,142 115,257 257,257l115 0c34,42 131,185 45,349l-373 0c-155,0 -281,126 -281,281 0,155 126,281 281,281l2628 0c155,0 281,-126 281,-281 0,-155 -126,-281 -281,-281z"/>
  <path class="fil17" d="M24951 17250l-198 0c-30,-90 -48,-224 39,-349l146 0c142,0 257,-115 257,-257 0,-142 -115,-257 -257,-257l-2402 0c-142,0 -257,115 -257,257 0,142 115,257 257,257l115 0c34,42 131,185 45,349l-373 0c-155,0 -281,126 -281,281 0,155 126,281 281,281l2628 0c155,0 281,-126 281,-281 0,-155 -126,-281 -281,-281z"/>
 </g>
</svg>
